<mxfile host="app.diagrams.net" agent="Mozilla/5.0 (X11; Ubuntu; Linux x86_64; rv:131.0) Gecko/20100101 Firefox/131.0" version="24.8.3">
  <diagram name="Page-1" id="5f0bae14-7c28-e335-631c-24af17079c00">
    <mxGraphModel dx="2031" dy="1191" grid="1" gridSize="10" guides="1" tooltips="1" connect="1" arrows="1" fold="1" page="1" pageScale="1" pageWidth="1100" pageHeight="850" background="none" math="0" shadow="0">
      <root>
        <mxCell id="0" />
        <mxCell id="1" parent="0" />
        <mxCell id="h62UwE2M3W9JxMMYReP1-87" value="" style="group" vertex="1" connectable="0" parent="1">
          <mxGeometry x="10" y="10" width="1290" height="1130" as="geometry" />
        </mxCell>
        <mxCell id="h62UwE2M3W9JxMMYReP1-25" value="Task Builder" style="swimlane;childLayout=stackLayout;resizeParent=1;resizeParentMax=0;horizontal=1;startSize=20;horizontalStack=0;html=1;strokeColor=#0e8088;rounded=0;swimlaneLine=1;glass=1;shadow=0;movable=0;resizable=0;rotatable=0;deletable=0;editable=0;locked=1;connectable=0;container=0;labelBackgroundColor=none;fillColor=#b0e3e6;" vertex="1" parent="h62UwE2M3W9JxMMYReP1-87">
          <mxGeometry width="1290" height="1030" as="geometry" />
        </mxCell>
        <mxCell id="h62UwE2M3W9JxMMYReP1-26" value="Input" style="swimlane;startSize=20;horizontal=0;html=1;movable=1;resizable=1;rotatable=1;deletable=1;editable=1;locked=0;connectable=1;labelBackgroundColor=none;" vertex="1" parent="h62UwE2M3W9JxMMYReP1-87">
          <mxGeometry y="20" width="1290" height="350" as="geometry" />
        </mxCell>
        <mxCell id="h62UwE2M3W9JxMMYReP1-27" value="Task Body" style="swimlane;startSize=20;horizontal=0;html=1;movable=1;resizable=1;rotatable=1;deletable=1;editable=1;locked=0;connectable=1;labelBackgroundColor=none;" vertex="1" parent="h62UwE2M3W9JxMMYReP1-87">
          <mxGeometry y="370" width="1290" height="340" as="geometry" />
        </mxCell>
        <mxCell id="h62UwE2M3W9JxMMYReP1-35" style="edgeStyle=orthogonalEdgeStyle;rounded=0;orthogonalLoop=1;jettySize=auto;html=1;exitX=0.5;exitY=1;exitDx=0;exitDy=0;entryX=0.5;entryY=0;entryDx=0;entryDy=0;labelBackgroundColor=none;fontColor=default;" edge="1" parent="h62UwE2M3W9JxMMYReP1-27" source="h62UwE2M3W9JxMMYReP1-21" target="h62UwE2M3W9JxMMYReP1-32">
          <mxGeometry relative="1" as="geometry" />
        </mxCell>
        <mxCell id="h62UwE2M3W9JxMMYReP1-21" value="Task List" style="swimlane;fontStyle=0;childLayout=stackLayout;horizontal=1;startSize=26;horizontalStack=0;resizeParent=1;resizeParentMax=0;resizeLast=0;collapsible=1;marginBottom=0;html=1;labelBackgroundColor=none;" vertex="1" parent="h62UwE2M3W9JxMMYReP1-27">
          <mxGeometry x="450" y="-315" width="140" height="104" as="geometry" />
        </mxCell>
        <mxCell id="h62UwE2M3W9JxMMYReP1-22" value="Input Class 1" style="text;strokeColor=none;fillColor=none;align=left;verticalAlign=top;spacingLeft=4;spacingRight=4;overflow=hidden;rotatable=0;points=[[0,0.5],[1,0.5]];portConstraint=eastwest;whiteSpace=wrap;html=1;labelBackgroundColor=none;" vertex="1" parent="h62UwE2M3W9JxMMYReP1-21">
          <mxGeometry y="26" width="140" height="26" as="geometry" />
        </mxCell>
        <mxCell id="h62UwE2M3W9JxMMYReP1-23" value="Input Class 2" style="text;strokeColor=none;fillColor=none;align=left;verticalAlign=top;spacingLeft=4;spacingRight=4;overflow=hidden;rotatable=0;points=[[0,0.5],[1,0.5]];portConstraint=eastwest;whiteSpace=wrap;html=1;labelBackgroundColor=none;" vertex="1" parent="h62UwE2M3W9JxMMYReP1-21">
          <mxGeometry y="52" width="140" height="26" as="geometry" />
        </mxCell>
        <mxCell id="h62UwE2M3W9JxMMYReP1-24" value="Input Class N" style="text;strokeColor=none;fillColor=none;align=left;verticalAlign=top;spacingLeft=4;spacingRight=4;overflow=hidden;rotatable=0;points=[[0,0.5],[1,0.5]];portConstraint=eastwest;whiteSpace=wrap;html=1;labelBackgroundColor=none;" vertex="1" parent="h62UwE2M3W9JxMMYReP1-21">
          <mxGeometry y="78" width="140" height="26" as="geometry" />
        </mxCell>
        <mxCell id="h62UwE2M3W9JxMMYReP1-76" style="edgeStyle=orthogonalEdgeStyle;rounded=0;orthogonalLoop=1;jettySize=auto;html=1;exitX=0.5;exitY=1;exitDx=0;exitDy=0;exitPerimeter=0;entryX=0.5;entryY=0;entryDx=0;entryDy=0;" edge="1" parent="h62UwE2M3W9JxMMYReP1-27" source="h62UwE2M3W9JxMMYReP1-54" target="h62UwE2M3W9JxMMYReP1-75">
          <mxGeometry relative="1" as="geometry" />
        </mxCell>
        <mxCell id="h62UwE2M3W9JxMMYReP1-75" value="&lt;div&gt;Prepare JSON&lt;/div&gt;&lt;div&gt;Metadata&lt;br&gt;&lt;/div&gt;" style="verticalLabelPosition=bottom;verticalAlign=top;html=1;shape=process;whiteSpace=wrap;rounded=1;size=0.14;arcSize=6;" vertex="1" parent="h62UwE2M3W9JxMMYReP1-27">
          <mxGeometry x="693.33" y="405" width="100" height="60" as="geometry" />
        </mxCell>
        <mxCell id="h62UwE2M3W9JxMMYReP1-84" style="edgeStyle=orthogonalEdgeStyle;rounded=0;orthogonalLoop=1;jettySize=auto;html=1;exitX=1;exitY=0.5;exitDx=0;exitDy=0;entryX=1;entryY=0.5;entryDx=0;entryDy=0;" edge="1" parent="h62UwE2M3W9JxMMYReP1-27" source="h62UwE2M3W9JxMMYReP1-77" target="h62UwE2M3W9JxMMYReP1-83">
          <mxGeometry relative="1" as="geometry">
            <Array as="points">
              <mxPoint x="1052.38" y="575" />
              <mxPoint x="1052.38" y="435" />
            </Array>
          </mxGeometry>
        </mxCell>
        <mxCell id="h62UwE2M3W9JxMMYReP1-77" value="Stores JSON" style="verticalLabelPosition=bottom;verticalAlign=top;html=1;shape=offPageConnector;rounded=0;size=0.5;" vertex="1" parent="h62UwE2M3W9JxMMYReP1-27">
          <mxGeometry x="932.38" y="545" width="60" height="60" as="geometry" />
        </mxCell>
        <mxCell id="h62UwE2M3W9JxMMYReP1-81" style="edgeStyle=orthogonalEdgeStyle;rounded=0;orthogonalLoop=1;jettySize=auto;html=1;exitX=0.93;exitY=0.5;exitDx=0;exitDy=0;exitPerimeter=0;entryX=0;entryY=0.5;entryDx=0;entryDy=0;" edge="1" parent="h62UwE2M3W9JxMMYReP1-27" source="h62UwE2M3W9JxMMYReP1-79" target="h62UwE2M3W9JxMMYReP1-77">
          <mxGeometry relative="1" as="geometry" />
        </mxCell>
        <mxCell id="h62UwE2M3W9JxMMYReP1-79" value="&lt;div&gt;Transformed&lt;/div&gt;&lt;div&gt;JSON&lt;/div&gt;" style="strokeWidth=2;html=1;shape=mxgraph.flowchart.stored_data;whiteSpace=wrap;" vertex="1" parent="h62UwE2M3W9JxMMYReP1-27">
          <mxGeometry x="693.33" y="545" width="100" height="60" as="geometry" />
        </mxCell>
        <mxCell id="h62UwE2M3W9JxMMYReP1-80" style="edgeStyle=orthogonalEdgeStyle;rounded=0;orthogonalLoop=1;jettySize=auto;html=1;exitX=0;exitY=0.5;exitDx=0;exitDy=0;entryX=0;entryY=0.5;entryDx=0;entryDy=0;entryPerimeter=0;" edge="1" parent="h62UwE2M3W9JxMMYReP1-27" source="h62UwE2M3W9JxMMYReP1-75" target="h62UwE2M3W9JxMMYReP1-79">
          <mxGeometry relative="1" as="geometry">
            <Array as="points">
              <mxPoint x="653.33" y="435" />
              <mxPoint x="653.33" y="575" />
            </Array>
          </mxGeometry>
        </mxCell>
        <mxCell id="h62UwE2M3W9JxMMYReP1-83" value="Task List Update" style="verticalLabelPosition=bottom;verticalAlign=top;html=1;shape=process;whiteSpace=wrap;rounded=1;size=0.14;arcSize=6;" vertex="1" parent="h62UwE2M3W9JxMMYReP1-27">
          <mxGeometry x="912.38" y="405" width="100" height="60" as="geometry" />
        </mxCell>
        <mxCell id="h62UwE2M3W9JxMMYReP1-85" style="edgeStyle=orthogonalEdgeStyle;rounded=0;orthogonalLoop=1;jettySize=auto;html=1;exitX=0.5;exitY=0;exitDx=0;exitDy=0;entryX=0.5;entryY=1;entryDx=0;entryDy=0;entryPerimeter=0;" edge="1" parent="h62UwE2M3W9JxMMYReP1-27" source="h62UwE2M3W9JxMMYReP1-83" target="h62UwE2M3W9JxMMYReP1-53">
          <mxGeometry relative="1" as="geometry" />
        </mxCell>
        <mxCell id="h62UwE2M3W9JxMMYReP1-41" value="Drop on Input row" style="verticalLabelPosition=bottom;verticalAlign=top;html=1;shape=card;whiteSpace=wrap;size=20;arcSize=12;labelBackgroundColor=none;" vertex="1" parent="h62UwE2M3W9JxMMYReP1-27">
          <mxGeometry x="470" y="50" width="100" height="60" as="geometry" />
        </mxCell>
        <mxCell id="h62UwE2M3W9JxMMYReP1-60" style="edgeStyle=orthogonalEdgeStyle;rounded=0;orthogonalLoop=1;jettySize=auto;html=1;exitX=0;exitY=0.5;exitDx=0;exitDy=0;exitPerimeter=0;entryX=1;entryY=0.5;entryDx=0;entryDy=0;labelBackgroundColor=none;fontColor=default;" edge="1" parent="h62UwE2M3W9JxMMYReP1-27" source="h62UwE2M3W9JxMMYReP1-47" target="h62UwE2M3W9JxMMYReP1-59">
          <mxGeometry relative="1" as="geometry" />
        </mxCell>
        <mxCell id="h62UwE2M3W9JxMMYReP1-62" value="&amp;nbsp;YES " style="edgeLabel;html=1;align=center;verticalAlign=middle;resizable=0;points=[];labelBackgroundColor=none;" vertex="1" connectable="0" parent="h62UwE2M3W9JxMMYReP1-60">
          <mxGeometry x="-0.05" y="2" relative="1" as="geometry">
            <mxPoint as="offset" />
          </mxGeometry>
        </mxCell>
        <mxCell id="h62UwE2M3W9JxMMYReP1-47" value="add more" style="strokeWidth=2;html=1;shape=mxgraph.flowchart.decision;whiteSpace=wrap;labelBackgroundColor=none;" vertex="1" parent="h62UwE2M3W9JxMMYReP1-27">
          <mxGeometry x="470" y="175" width="100" height="100" as="geometry" />
        </mxCell>
        <mxCell id="h62UwE2M3W9JxMMYReP1-50" style="edgeStyle=orthogonalEdgeStyle;rounded=0;orthogonalLoop=1;jettySize=auto;html=1;entryX=0.5;entryY=0;entryDx=0;entryDy=0;entryPerimeter=0;labelBackgroundColor=none;fontColor=default;" edge="1" parent="h62UwE2M3W9JxMMYReP1-27" target="h62UwE2M3W9JxMMYReP1-47">
          <mxGeometry relative="1" as="geometry">
            <mxPoint x="520" y="115" as="sourcePoint" />
          </mxGeometry>
        </mxCell>
        <mxCell id="h62UwE2M3W9JxMMYReP1-53" value="" style="verticalLabelPosition=bottom;verticalAlign=top;html=1;shape=mxgraph.flowchart.or;labelBackgroundColor=none;" vertex="1" parent="h62UwE2M3W9JxMMYReP1-27">
          <mxGeometry x="942.38" y="207.5" width="40" height="35" as="geometry" />
        </mxCell>
        <mxCell id="h62UwE2M3W9JxMMYReP1-54" value="Save" style="strokeWidth=2;html=1;shape=mxgraph.flowchart.decision;whiteSpace=wrap;labelBackgroundColor=none;" vertex="1" parent="h62UwE2M3W9JxMMYReP1-27">
          <mxGeometry x="693.33" y="175" width="100" height="100" as="geometry" />
        </mxCell>
        <mxCell id="h62UwE2M3W9JxMMYReP1-55" style="edgeStyle=orthogonalEdgeStyle;rounded=0;orthogonalLoop=1;jettySize=auto;html=1;exitX=1;exitY=0.5;exitDx=0;exitDy=0;exitPerimeter=0;entryX=0;entryY=0.5;entryDx=0;entryDy=0;entryPerimeter=0;labelBackgroundColor=none;fontColor=default;" edge="1" parent="h62UwE2M3W9JxMMYReP1-27" source="h62UwE2M3W9JxMMYReP1-47" target="h62UwE2M3W9JxMMYReP1-54">
          <mxGeometry relative="1" as="geometry" />
        </mxCell>
        <mxCell id="h62UwE2M3W9JxMMYReP1-58" value="&amp;nbsp;NO " style="edgeLabel;html=1;align=center;verticalAlign=middle;resizable=0;points=[];labelBackgroundColor=none;" vertex="1" connectable="0" parent="h62UwE2M3W9JxMMYReP1-55">
          <mxGeometry x="-0.1833" y="-5" relative="1" as="geometry">
            <mxPoint as="offset" />
          </mxGeometry>
        </mxCell>
        <mxCell id="h62UwE2M3W9JxMMYReP1-59" value="Add New Row" style="verticalLabelPosition=bottom;verticalAlign=top;html=1;shape=process;whiteSpace=wrap;rounded=1;size=0.14;arcSize=6;labelBackgroundColor=none;" vertex="1" parent="h62UwE2M3W9JxMMYReP1-27">
          <mxGeometry x="290" y="195" width="100" height="60" as="geometry" />
        </mxCell>
        <mxCell id="h62UwE2M3W9JxMMYReP1-63" style="edgeStyle=orthogonalEdgeStyle;rounded=0;orthogonalLoop=1;jettySize=auto;html=1;exitX=1;exitY=0.5;exitDx=0;exitDy=0;exitPerimeter=0;entryX=0;entryY=0.5;entryDx=0;entryDy=0;entryPerimeter=0;labelBackgroundColor=none;fontColor=default;" edge="1" parent="h62UwE2M3W9JxMMYReP1-27" source="h62UwE2M3W9JxMMYReP1-54" target="h62UwE2M3W9JxMMYReP1-53">
          <mxGeometry relative="1" as="geometry" />
        </mxCell>
        <mxCell id="h62UwE2M3W9JxMMYReP1-65" value="&amp;nbsp;NO " style="edgeLabel;html=1;align=center;verticalAlign=middle;resizable=0;points=[];labelBackgroundColor=none;" vertex="1" connectable="0" parent="h62UwE2M3W9JxMMYReP1-63">
          <mxGeometry x="0.0355" relative="1" as="geometry">
            <mxPoint y="1" as="offset" />
          </mxGeometry>
        </mxCell>
        <mxCell id="h62UwE2M3W9JxMMYReP1-64" style="edgeStyle=orthogonalEdgeStyle;rounded=0;orthogonalLoop=1;jettySize=auto;html=1;exitX=1;exitY=0.5;exitDx=0;exitDy=0;exitPerimeter=0;entryX=0;entryY=0.5;entryDx=0;entryDy=0;entryPerimeter=0;labelBackgroundColor=none;fontColor=default;" edge="1" parent="h62UwE2M3W9JxMMYReP1-27" source="h62UwE2M3W9JxMMYReP1-53" target="h62UwE2M3W9JxMMYReP1-36">
          <mxGeometry relative="1" as="geometry" />
        </mxCell>
        <mxCell id="h62UwE2M3W9JxMMYReP1-36" value="Exit" style="strokeWidth=2;html=1;shape=mxgraph.flowchart.terminator;whiteSpace=wrap;labelBackgroundColor=none;" vertex="1" parent="h62UwE2M3W9JxMMYReP1-27">
          <mxGeometry x="1110" y="195" width="100" height="60" as="geometry" />
        </mxCell>
        <mxCell id="h62UwE2M3W9JxMMYReP1-32" value="Select Item" style="shape=manualInput;whiteSpace=wrap;html=1;labelBackgroundColor=none;" vertex="1" parent="h62UwE2M3W9JxMMYReP1-27">
          <mxGeometry x="480" y="-145" width="80" height="80" as="geometry" />
        </mxCell>
        <mxCell id="h62UwE2M3W9JxMMYReP1-37" value="Start" style="strokeWidth=2;html=1;shape=mxgraph.flowchart.start_1;whiteSpace=wrap;labelBackgroundColor=none;" vertex="1" parent="h62UwE2M3W9JxMMYReP1-27">
          <mxGeometry x="80" y="-125" width="100" height="60" as="geometry" />
        </mxCell>
        <mxCell id="h62UwE2M3W9JxMMYReP1-38" value="" style="strokeWidth=2;html=1;shape=mxgraph.flowchart.annotation_2;align=left;labelPosition=right;pointerEvents=1;labelBackgroundColor=none;" vertex="1" parent="h62UwE2M3W9JxMMYReP1-27">
          <mxGeometry x="590" y="-155" width="50" height="100" as="geometry" />
        </mxCell>
        <mxCell id="h62UwE2M3W9JxMMYReP1-43" value="" style="verticalLabelPosition=bottom;verticalAlign=top;html=1;shape=mxgraph.flowchart.or;labelBackgroundColor=none;" vertex="1" parent="h62UwE2M3W9JxMMYReP1-27">
          <mxGeometry x="240" y="-112.5" width="40" height="35" as="geometry" />
        </mxCell>
        <mxCell id="h62UwE2M3W9JxMMYReP1-44" style="edgeStyle=orthogonalEdgeStyle;rounded=0;orthogonalLoop=1;jettySize=auto;html=1;exitX=1;exitY=0.5;exitDx=0;exitDy=0;exitPerimeter=0;entryX=0;entryY=0.5;entryDx=0;entryDy=0;entryPerimeter=0;labelBackgroundColor=none;fontColor=default;" edge="1" parent="h62UwE2M3W9JxMMYReP1-27" source="h62UwE2M3W9JxMMYReP1-37" target="h62UwE2M3W9JxMMYReP1-43">
          <mxGeometry relative="1" as="geometry" />
        </mxCell>
        <mxCell id="h62UwE2M3W9JxMMYReP1-45" style="edgeStyle=orthogonalEdgeStyle;rounded=0;orthogonalLoop=1;jettySize=auto;html=1;exitX=1;exitY=0.5;exitDx=0;exitDy=0;exitPerimeter=0;entryX=0.025;entryY=0.625;entryDx=0;entryDy=0;entryPerimeter=0;labelBackgroundColor=none;fontColor=default;" edge="1" parent="h62UwE2M3W9JxMMYReP1-27" source="h62UwE2M3W9JxMMYReP1-43" target="h62UwE2M3W9JxMMYReP1-32">
          <mxGeometry relative="1" as="geometry" />
        </mxCell>
        <mxCell id="h62UwE2M3W9JxMMYReP1-40" style="edgeStyle=orthogonalEdgeStyle;rounded=0;orthogonalLoop=1;jettySize=auto;html=1;exitX=0.5;exitY=1;exitDx=0;exitDy=0;entryX=0.5;entryY=0;entryDx=0;entryDy=0;entryPerimeter=0;labelBackgroundColor=none;fontColor=default;" edge="1" parent="h62UwE2M3W9JxMMYReP1-27" source="h62UwE2M3W9JxMMYReP1-32" target="h62UwE2M3W9JxMMYReP1-41">
          <mxGeometry relative="1" as="geometry">
            <mxPoint x="520" y="-25" as="targetPoint" />
          </mxGeometry>
        </mxCell>
        <mxCell id="h62UwE2M3W9JxMMYReP1-61" style="edgeStyle=orthogonalEdgeStyle;rounded=0;orthogonalLoop=1;jettySize=auto;html=1;exitX=0;exitY=0.5;exitDx=0;exitDy=0;labelBackgroundColor=none;fontColor=default;" edge="1" parent="h62UwE2M3W9JxMMYReP1-27" source="h62UwE2M3W9JxMMYReP1-59" target="h62UwE2M3W9JxMMYReP1-43">
          <mxGeometry relative="1" as="geometry" />
        </mxCell>
        <mxCell id="h62UwE2M3W9JxMMYReP1-28" value="Data Layer" style="swimlane;startSize=20;horizontal=0;html=1;movable=1;resizable=1;rotatable=1;deletable=1;editable=1;locked=0;connectable=1;labelBackgroundColor=none;" vertex="1" parent="h62UwE2M3W9JxMMYReP1-87">
          <mxGeometry y="710" width="1290" height="320" as="geometry" />
        </mxCell>
      </root>
    </mxGraphModel>
  </diagram>
</mxfile>
